<?xml version="1.0" encoding="UTF-8"?>
<svg id="Layer_2" data-name="Layer 2" xmlns="http://www.w3.org/2000/svg" viewBox="0 0 46.84 42.76">
  <defs>
    <style>
      .cls-1 {
        fill: #f1f0f0;
      }
    </style>
  </defs>
  <g id="Layer_1-2" data-name="Layer 1">
    <path class="cls-1" d="M10.1,11.44c-1.75-.03-1.75-2.63,0-2.67,1.75.03,1.75,2.63,0,2.67h0ZM10.1,7.1c-3.96.1-3.96,5.91,0,6.01,3.96-.1,3.96-5.91,0-6.01h0Z"/>
    <path class="cls-1" d="M37.55,41.09c-8.42-.1-10.57-11.6-2.78-14.77,1.02-.4.41-1.96-.61-1.56-5.5,2.01-7.73,9.31-4.25,14.02.3.43.65.82,1.01,1.19H3.35c-.92,0-1.67-.75-1.67-1.67v-10.52l11.34-6.14,8.3,3.99c.3.14.66.1.91-.12l9.41-8.22,5.33,4.7v2.97c.02.37.27.74.65.8,10.07.58,10.03,14.91-.08,15.33h0ZM1.67,3.35c0-.92.75-1.67,1.67-1.67h31.95c.92,0,1.67.75,1.67,1.67v16.41l-4.77-4.21c-.32-.28-.79-.28-1.11,0l-9.55,8.34-8.19-3.94c-.24-.12-.53-.11-.76.02L1.67,25.88V3.35h0ZM41.51,24.99c-.91-.43-1.88-.69-2.86-.81v-2.62s0-18.22,0-18.22c0-1.85-1.5-3.35-3.35-3.35H3.35C1.5,0,0,1.5,0,3.35c0,0,0,24.01,0,24.02v10.93c0,1.85,1.5,3.35,3.35,3.35h29.81c1.34.72,2.85,1.11,4.38,1.11,9.94-.13,12.89-13.42,3.96-17.77h0Z"/>
    <path class="cls-1" d="M41.14,30.05l-4.99,4.99-2.2-2.2c-.77-.77-1.96.41-1.18,1.18l2.79,2.79c.33.33.86.33,1.18,0l5.58-5.58c.77-.77-.4-1.96-1.18-1.18h0Z"/>
  </g>
</svg>