<?xml version="1.0" encoding="UTF-8"?>
<svg id="Layer_2" data-name="Layer 2" xmlns="http://www.w3.org/2000/svg" viewBox="0 0 36.79 36.79">
  <defs>
    <style>
      .cls-1 {
        fill: #fff;
      }
    </style>
  </defs>
  <g id="Layer_2-2" data-name="Layer 2">
    <path class="cls-1" d="M12.29,18.4c0-3.37,2.74-6.11,6.11-6.11s6.11,2.74,6.11,6.11-2.74,6.11-6.11,6.11-6.11-2.74-6.11-6.11h0ZM26.66,18.4c0-4.56-3.71-8.26-8.26-8.26s-8.26,3.71-8.26,8.26,3.71,8.26,8.26,8.26,8.26-3.71,8.26-8.26h0Z"/>
    <path class="cls-1" d="M19.47,5.65V1.08c0-.59-.48-1.08-1.08-1.08s-1.08.48-1.08,1.08v4.57c0,.59.48,1.08,1.08,1.08s1.08-.48,1.08-1.08h0Z"/>
    <path class="cls-1" d="M9.38,10.46c.28,0,.55-.11.76-.32.42-.42.42-1.1,0-1.52l-3.23-3.23c-.42-.42-1.1-.42-1.52,0-.42.42-.42,1.1,0,1.52l3.23,3.23c.21.21.49.32.76.32h0Z"/>
    <path class="cls-1" d="M5.65,19.47c.59,0,1.08-.48,1.08-1.08s-.48-1.08-1.08-1.08H1.08c-.59,0-1.08.48-1.08,1.08s.48,1.08,1.08,1.08h4.57Z"/>
    <path class="cls-1" d="M6.91,31.4l3.23-3.23c.42-.42.42-1.1,0-1.52-.42-.42-1.1-.42-1.52,0l-3.23,3.23c-.42.42-.42,1.1,0,1.52.21.21.49.32.76.32s.55-.11.76-.32h0Z"/>
    <path class="cls-1" d="M19.47,35.72v-4.57c0-.59-.48-1.08-1.08-1.08s-1.08.48-1.08,1.08v4.57c0,.59.48,1.08,1.08,1.08s1.08-.48,1.08-1.08h0Z"/>
    <path class="cls-1" d="M30.64,31.72c.28,0,.55-.11.76-.32.42-.42.42-1.1,0-1.52l-3.23-3.23c-.42-.42-1.1-.42-1.52,0-.42.42-.42,1.1,0,1.52l3.23,3.23c.21.21.49.32.76.32h0Z"/>
    <path class="cls-1" d="M35.72,19.47c.59,0,1.08-.48,1.08-1.08s-.48-1.08-1.08-1.08h-4.57c-.59,0-1.08.48-1.08,1.08s.48,1.08,1.08,1.08h4.57Z"/>
    <path class="cls-1" d="M28.17,10.14l3.23-3.23c.42-.42.42-1.1,0-1.52-.42-.42-1.1-.42-1.52,0l-3.23,3.23c-.42.42-.42,1.1,0,1.52.21.21.49.32.76.32s.55-.11.76-.32h0Z"/>
  </g>
</svg>