<?xml version="1.0" encoding="UTF-8"?>
<svg id="Layer_2" data-name="Layer 2" xmlns="http://www.w3.org/2000/svg" viewBox="0 0 112.42 91.11">
  <defs>
    <style>
      .cls-1 {
        fill: #f0f0f0;
      }
    </style>
  </defs>
  <g id="Layer_1-2" data-name="Layer 1">
    <g>
      <path class="cls-1" d="M44.84,91.11h46.71c7.1,0,13.76-3.73,17.4-9.86,2.22-3.02,3.46-6.66,3.46-10.48,0-9.77-7.9-17.67-17.67-17.67-.53,0-.98,0-1.51.09-4.17-10.39-14.3-17.4-25.66-17.4h-.53c-2.84-11.37-13.05-19.54-25.04-19.54-14.21,0-25.84,11.54-25.84,25.84,0,8.35,4,15.98,10.57,20.87-1.42,2.31-2.22,4.97-2.22,7.9,0,11.1,9.15,20.25,20.33,20.25ZM64.65,42.71q.09,0,0,0c.98-.18,1.95-.18,2.93-.18,9.41,0,17.67,6.3,20.16,15.36.53,1.78,2.31,2.84,4.08,2.31.98-.27,1.95-.36,2.84-.36,6.04,0,10.92,4.88,10.92,10.92,0,2.4-.8,4.71-2.22,6.57-.09.09-.18.18-.18.36-2.4,4.17-6.93,6.75-11.72,6.75h-46.71c-7.55,0-13.59-6.13-13.59-13.59,0-4.62,3.82-8.44,8.44-8.44.98,0,1.86.18,2.75.44.98.36,1.95.27,2.84-.27.89-.53,1.42-1.42,1.6-2.4,1.6-9.32,8.79-16.25,17.85-17.49h0ZM22.91,42c0-10.57,8.52-19.09,19.09-19.09,8.61,0,15.98,5.77,18.38,13.76-9.24,2.49-16.61,9.59-19.27,18.91-.44,0-.89-.09-1.33-.09-3.02,0-5.77.89-8.17,2.4-5.42-3.37-8.7-9.32-8.7-15.89Z"/>
      <path class="cls-1" d="M45.38,11.19V3.37c0-1.86-1.51-3.37-3.37-3.37s-3.37,1.51-3.37,3.37v7.81c0,1.86,1.51,3.37,3.37,3.37s3.37-1.51,3.37-3.37Z"/>
      <path class="cls-1" d="M26.55,18.74c.53,0,1.15-.18,1.69-.44,1.6-.89,2.13-3.02,1.24-4.62l-3.91-6.84c-.89-1.6-3.02-2.13-4.62-1.24-1.6.89-2.13,3.02-1.24,4.62l3.91,6.84c.71,1.07,1.78,1.69,2.93,1.69Z"/>
      <path class="cls-1" d="M13.59,29.57c.53.27,1.07.44,1.69.44,1.15,0,2.31-.62,2.93-1.69.89-1.6.36-3.64-1.24-4.62l-6.84-3.91c-1.6-.89-3.64-.36-4.62,1.24-.89,1.6-.36,3.64,1.24,4.62l6.84,3.91Z"/>
      <path class="cls-1" d="M11.19,45.38c1.86,0,3.37-1.51,3.37-3.37s-1.51-3.37-3.37-3.37H3.37c-1.86,0-3.37,1.51-3.37,3.37s1.51,3.37,3.37,3.37h7.81Z"/>
      <path class="cls-1" d="M8.52,64.73c.53,0,1.15-.18,1.69-.44l6.84-3.91c1.6-.89,2.13-3.02,1.24-4.62-.89-1.6-3.02-2.13-4.62-1.24l-6.84,3.91c-1.6.89-2.13,3.02-1.24,4.62.62,1.07,1.78,1.69,2.93,1.69Z"/>
      <path class="cls-1" d="M68.64,30.01c.53,0,1.15-.18,1.69-.44l6.84-3.91c1.6-.89,2.13-3.02,1.24-4.62-.89-1.6-3.02-2.13-4.62-1.24l-6.84,3.91c-1.6.89-2.13,3.02-1.24,4.62.71,1.07,1.78,1.69,2.93,1.69Z"/>
      <path class="cls-1" d="M57.36,18.74c1.15,0,2.31-.62,2.93-1.69l3.91-6.84c.89-1.6.36-3.64-1.24-4.62-1.6-.89-3.64-.36-4.62,1.24l-3.91,6.84c-.89,1.6-.36,3.64,1.24,4.62.53.27,1.15.44,1.69.44Z"/>
    </g>
  </g>
</svg>