<?xml version="1.0" encoding="UTF-8"?>
<svg id="Layer_2" data-name="Layer 2" xmlns="http://www.w3.org/2000/svg" viewBox="0 0 125.21 125.02">
  <defs>
    <style>
      .cls-1 {
        fill: #f0f0f0;
      }
    </style>
  </defs>
  <g id="Layer_1-2" data-name="Layer 1">
    <path class="cls-1" d="M113.6,96.4c-11.65,12.77-26.78,15.3-41.11,22.83-1.98,1.04-8.28,5.69-9.6,5.78-1.66.11-7.9-4.63-10.09-5.78-11.72-6.16-24.69-8.95-35.33-17.53C-2.73,85.4-4.16,56.59,6.78,34.37-12.57,13.76,14.02-12.04,35.05,6.24c17.52-8.32,37.66-8.32,55.17,0,21.03-18.28,47.62,7.53,28.28,28.13,9.6,18.53,9.67,46.06-4.9,62.04ZM27.96,10.78c1.24-1.71-6.54-3.91-7.69-3.97-11.19-.63-16.98,12.26-10.49,21.03,1.31.36.94-.32,1.29-.72,5.12-5.93,9.46-12.75,16.88-16.34ZM57.98,6.99C24.35,9.96.81,41.97,8.33,75.03c6.16,27.06,34.21,29.83,54.49,41.95,19.11-11.99,46.44-14.5,53.53-39.7C126.75,40.32,96.17,3.61,57.98,6.99ZM115.49,27.84c8.7-12.85-5-27.01-17.91-18.2l.09,1.18c7.2,3.89,11.43,10.38,16.53,16.3.35.4-.02,1.08,1.29.72Z"/>
    <path class="cls-1" d="M56.95,82.97c-15.66-3.91-15.78-16.72,1.43-18.18,5.4-.46,19.76-.16,21.17,6.66,1.55,7.47-5.62,9.46-11.23,11.53,5.76,8.1,19.26,2.71,20.41-6.02,1.61-12.23-15.38-23.01-13.54-36.27.83-5.94,7.1-11.31,13.11-10.81,10.92.91,7.24,16.55-2.21,13.45-1.66-.55-2.47-2.21-4.13-2.4-.57,7.6,5.82,13.64,9.19,20.07,4.12,7.85,7.07,14.99,2.07,23.29-6.52,10.83-21.88,13.12-30.39,3.27-6.71,6.19-14.33,8.4-22.89,4.17-10.49-5.19-12.33-15.66-8.29-25.79,3.44-8.62,11.73-15.64,11.64-25.01-2.03.47-3.16,2.55-5.45,2.82-7.05.83-10.81-9.23-4.24-12.8s15.48,2.63,16.47,9.74c1.83,13.14-14.73,23.71-13.59,35.75.86,9.16,14.54,14.75,20.46,6.54ZM72.3,72.74c-5.92-1.24-12.16-1.82-18.08-.17-.54.15-1.73.01-1.24,1.01.43.87,8.79,4.34,9.9,4.26.72-.05,7.31-2.76,8.12-3.29.76-.49,1.53-.68,1.3-1.82Z"/>
  </g>
</svg>