<?xml version="1.0" encoding="UTF-8"?>
<svg id="Layer_2" data-name="Layer 2" xmlns="http://www.w3.org/2000/svg" viewBox="0 0 30.51 30.55">
  <defs>
    <style>
      .cls-1 {
        fill: #dca8a2;
      }
    </style>
  </defs>
  <g id="Layer_2-2" data-name="Layer 2">
    <path class="cls-1" d="M27.73,4.86L9.83,22.76c-.28.28-.4.68-.32,1.07.25,1.21-.11,2.44-.98,3.31-1.41,1.41-3.71,1.41-5.13,0-1.41-1.41-1.41-3.71,0-5.13.69-.69,1.61-1.06,2.56-1.06.23,0,.47.02.7.07.38.07.78-.05,1.05-.32L25.64,2.78c.28-.28.65-.43,1.04-.43s.76.15,1.04.43c.28.28.43.65.43,1.04s-.15.76-.43,1.04h0ZM30.51,3.82c0-1.02-.4-1.98-1.12-2.7-.72-.72-1.68-1.12-2.7-1.12s-1.98.4-2.7,1.12L6.47,18.63c-1.74-.15-3.47.48-4.72,1.73-2.33,2.33-2.33,6.11,0,8.44,1.16,1.16,2.69,1.75,4.22,1.75s3.06-.58,4.22-1.75c1.27-1.27,1.89-3.03,1.72-4.8L29.39,6.52c.72-.72,1.12-1.68,1.12-2.7h0Z"/>
    <path class="cls-1" d="M17.5,13.91l-.89-.89-8.59,8.59c-.34.34-.83.45-1.28.32-.97-.29-2.06-.04-2.82.75-1.01,1.05-1.02,2.77-.03,3.84,1.09,1.17,2.92,1.2,4.04.08.76-.76.99-1.86.69-2.82-.14-.46-.02-.95.32-1.29l8.57-8.57h0Z"/>
  </g>
</svg>